HIERARCHY
ROOT pelvis
{
  OFFSET 0 100 0
  CHANNELS 6 Xposition Yposition Zposition Zrotation Xrotation Yrotation
  JOINT pelvis_right_femur
  {
    OFFSET -10.78128 -3.44521 -0.5502486
    CHANNELS 3 Zrotation Xrotation Yrotation
    JOINT right_femur_tibia
    {
      OFFSET -0.8047443 -44.0398 -0.1307829
      CHANNELS 3 Zrotation Xrotation Yrotation
      JOINT right_tibia_foot
      {
        OFFSET 3.006224 -47.83518 -5
        CHANNELS 3 Zrotation Xrotation Yrotation
        End Site
        {
          OFFSET 0 -5 15
        }
      }
    }
  }
  JOINT pelvis_left_femur
  {
    OFFSET 10.78128 -3.44521 -0.5502486
    CHANNELS 3 Zrotation Xrotation Yrotation
    JOINT left_femur_tibia
    {
      OFFSET 0.8047443 -44.0398 -0.1307829
      CHANNELS 3 Zrotation Xrotation Yrotation
      JOINT left_tibia_foot
      {
        OFFSET -4.370144 -48.10324 -4.275266
        CHANNELS 3 Zrotation Xrotation Yrotation
        End Site
        {
          OFFSET 0 -5 15
        }
      }
    }
  }
  JOINT pelvis_spine1
  {
    OFFSET 0 6.468898 -3.129235
    CHANNELS 3 Zrotation Xrotation Yrotation
    JOINT spine1
    {
      OFFSET 0 23.15396 4.99043
      CHANNELS 3 Zrotation Xrotation Yrotation
      JOINT spine2
      {
        OFFSET 0 20.79997 -5.064912
        CHANNELS 3 Zrotation Xrotation Yrotation
        JOINT neck
        {
          OFFSET 0 14.38658 9.616178
          CHANNELS 3 Zrotation Xrotation Yrotation
          End Site
          {
            OFFSET 0 20 0
          }
        }
      }
      JOINT right_manubrium
      {
        OFFSET -5.722621 16.35077 3.967754
        CHANNELS 3 Zrotation Xrotation Yrotation
        JOINT right_clavicle
        {
          OFFSET -13.16364 1.694482 -4.693211
          CHANNELS 3 Zrotation Xrotation Yrotation
          JOINT right_humerus
          {
            OFFSET -28.5034 -0.3100689 -2.792744
            CHANNELS 3 Zrotation Xrotation Yrotation
            JOINT right_radius
            {
              OFFSET -25.15693 0.02248979 -1.271978
              CHANNELS 3 Zrotation Xrotation Yrotation
              End Site
              {
                OFFSET -15 0 0
              }
            }
          }
        }
      }
      JOINT left_manubrium
      {
        OFFSET 5.722621 16.35077 3.967754
        CHANNELS 3 Zrotation Xrotation Yrotation
        JOINT left_clavicle
        {
          OFFSET 13.16364 1.694482 -4.693211
          CHANNELS 3 Zrotation Xrotation Yrotation
          JOINT left_humerus
          {
            OFFSET 29.39168 -1.063119 -2.237045
            CHANNELS 3 Zrotation Xrotation Yrotation
            JOINT left_radius
            {
              OFFSET 24.59957 -0.9528479 0.9047498
              CHANNELS 3 Zrotation Xrotation Yrotation
              End Site
              {
                OFFSET 15 -0 -0
              }
            }
          }
        }
      }
    }
  }
}
MOTION
Frames: 19
Frame Time: 0.0416666666667
0 103.5113 0 2.042613 -3.257507 0.1286625 1.393282 -11.19299 7.020944 -0 37.44462 -0 -6.415909 -17.5683 -3.468188 -7.300296 11.76072 -23.89674 -0 4.031212 -0 7.793072 -15.2166 25.81095 -2.257182 -3.662834 5.547894 2.735737 9.472127 -7.360805 1.638622 21.98138 5.541269 1.695164 -26.66904 9.902827 4.926221 -19.75914 10.24432 86.40504 34.33252 -20.07544 -0 0 15.79545 -6.180062 7.12772 3.132243 6.260981 -21.03906 -0.9546591 -96.27799 27.01408 25.33513 0 0 -13.93919 10.5241 17.3855 3.117883
0.2973859 103.398 1.475136 1.571161 -2.167068 0.07847667 2.436624 -14.13348 8.226164 -0 37.94539 -0 -5.605491 -17.70844 -3.772863 -7.125258 11.91437 -24.08328 -0 4.428605 -0 7.134804 -16.56473 26.03732 -2.360555 -3.794095 5.702057 2.54975 9.382476 -7.124023 1.707055 22.29598 5.3067 1.519062 -26.44405 9.85806 4.795575 -19.87265 10.04992 86.09127 34.28035 -19.4932 -0 0 16.17945 -6.371345 6.881396 3.168319 6.154893 -20.86875 -0.9191047 -96.76255 27.43776 25.91109 0 0 -12.97515 10.31845 17.90828 3.342195
0.552601 103.2391 3.090639 0.9276509 -1.368534 0.03373673 3.351825 -17.25195 8.274063 -0 36.62701 -0 -5.709531 -15.63084 -3.683929 -6.7148 11.93176 -23.4794 -0 4.990217 -0 5.064242 -18.6182 25.25931 -2.156403 -3.371198 5.423651 2.95245 9.715562 -7.675171 1.459716 21.58806 5.746254 1.951987 -26.75951 9.614692 5.071713 -19.63262 10.57236 86.70036 34.5453 -20.58546 -0 0 15.11196 -6.454894 7.548029 3.525647 6.217155 -21.29523 -1.097655 -95.38812 26.48559 24.50174 0 0 -15.41788 10.40461 16.26497 3.231946
0.7831747 103.0383 4.825372 0.3817233 -0.4382285 0.01040891 4.278472 -20.35842 8.49276 -0 35.04517 -0 -5.630095 -14.32148 -3.629706 -6.411867 11.93147 -22.92622 -0 5.294796 -0 3.887868 -20.16998 24.60091 -2.055493 -3.172655 5.275496 3.172958 9.891735 -7.979528 1.339614 21.26144 5.919211 2.130877 -26.9321 9.472523 5.180218 -19.50347 10.80971 87.107 34.60731 -21.26865 -0 0 14.5137 -6.445536 7.827222 3.64418 6.237421 -21.55345 -1.227199 -94.73989 26.12675 23.8089 0 0 -16.70295 10.38854 15.46407 3.275445
1.010945 102.7146 6.7988 -0.09292467 0.5667349 0.02093722 5.137432 -23.8272 8.249029 -0 31.80714 -0 -5.633857 -12.7613 -3.340877 -6.214735 11.97467 -21.97969 -0 5.508539 -0 3.462084 -21.47401 23.80361 -1.920713 -2.966879 5.085945 3.511635 10.14806 -8.440548 1.184981 20.87369 6.055378 2.283538 -27.24065 9.263129 5.280868 -19.36174 11.0783 87.82794 34.54559 -22.46093 -0 0 13.67197 -6.242678 8.055939 3.62964 6.24633 -21.98774 -1.470656 -94.05303 25.92832 23.05757 0 0 -18.47686 10.2603 14.49432 3.55405
1.246997 102.2382 9.094128 -0.4949755 1.674043 0.0855358 5.953665 -27.43774 7.892354 -0 27.68803 -0 -5.591235 -11.21261 -2.959833 -6.108515 12.10843 -20.89753 -0 5.772127 -0 3.594003 -22.54333 23.01469 -1.801574 -2.798927 4.918198 3.816796 10.39092 -8.869992 1.042393 20.54206 6.149791 2.402979 -27.49692 9.046631 5.357753 -19.23249 11.30698 88.53374 34.44633 -23.6048 -0 0 12.88993 -6.077667 8.245837 3.60718 6.247073 -22.41981 -1.721828 -93.45275 25.81445 22.39585 0 0 -20.0994 10.08612 13.6315 3.900495
1.494278 101.6024 11.82891 -0.8337201 2.831252 0.2380958 6.698477 -31.01762 7.405424 -0 22.96101 -0 -5.592486 -9.353262 -2.474413 -6.065808 12.37766 -19.67723 -0 6.356188 -0 4.07041 -23.35703 22.17765 -1.685743 -2.655389 4.762339 4.12137 10.65332 -9.315234 0.8926589 20.23367 6.205749 2.499 -27.72941 8.788645 5.419099 -19.11243 11.52031 89.30075 34.29453 -24.83002 -0 0 12.09173 -5.93571 8.4094 3.574592 6.234542 -22.90344 -2.016036 -92.896 25.79876 21.78838 0 0 -21.74066 9.823853 12.78244 4.391067
1.746915 100.8515 15.13323 -1.146507 3.968665 0.5308179 7.383475 -34.22211 6.89137 -0 18.3425 -0 -5.726712 -7.000611 -1.924724 -6.021302 12.80578 -18.41031 -0 7.584521 -0 4.465206 -23.83631 21.17222 -1.583951 -2.532381 4.629893 4.384235 10.91346 -9.726381 0.7440042 19.96667 6.23855 2.586192 -27.88034 8.502128 5.46786 -18.99868 11.71163 90.03068 34.13541 -25.97231 -0 0 11.34299 -5.911267 8.578766 3.592813 6.211419 -23.38603 -2.322211 -92.37475 25.81961 21.23065 0 0 -23.2616 9.497822 11.98243 4.960803
1.993695 100.0802 19.13327 -1.476259 4.917552 1.023168 7.973396 -36.42612 6.378587 -0 14.70214 -0 -6.107924 -4.156007 -1.354844 -5.879652 13.38641 -17.19918 -0 9.803763 -0 4.121462 -23.77843 19.72123 -1.499685 -2.428482 4.528438 4.593268 11.16874 -10.08861 0.5971466 19.74848 6.249336 2.66746 -27.93379 8.185668 5.504116 -18.89481 11.87915 90.69488 33.98334 -26.98776 -0 0 10.66494 -6.036947 8.761934 3.680182 6.17453 -23.85375 -2.636447 -91.89615 25.87511 20.73777 0 0 -24.62453 9.099734 11.23867 5.61323
2.225051 99.42835 23.89744 -1.87419 5.441139 1.741347 8.430667 -36.82968 5.875974 -0 12.91985 -0 -6.758053 -1.347699 -0.8612237 -5.516226 14.02408 -16.1466 -0 13.31359 -0 2.263615 -22.83089 17.46519 -1.439991 -2.339007 4.468976 4.72519 11.40655 -10.36969 0.457867 19.59229 6.243665 2.747709 -27.86331 7.848513 5.527465 -18.80424 12.01837 91.22911 33.86921 -27.77524 -0 0 10.10179 -6.363007 8.97373 3.86849 6.120503 -24.26829 -2.940028 -91.4661 25.94202 20.3242 0 0 -25.74477 8.637858 10.57214 6.316886
2.440811 99.05467 29.37721 -2.373787 5.318275 2.59473 8.780654 -34.92227 5.362117 -0 13.28743 -0 -7.53624 0.3873906 -0.587111 -4.841354 14.4485 -15.16156 -0 18.38838 -0 -1.268002 -20.47892 14.33697 -1.411172 -2.260529 4.46534 4.762356 11.61638 -10.54122 0.3317662 19.51106 6.221715 2.826328 -27.65537 7.49954 5.535812 -18.73694 12.12454 91.57434 33.81703 -28.24772 -0 0 9.698975 -6.920035 9.217832 4.177559 6.042273 -24.59288 -3.217225 -91.10472 26.01534 20.02512 0 0 -26.54582 8.113961 10.00368 7.054215
2.653473 99.10705 35.40412 -2.962432 4.517226 3.308228 9.188484 -31.17529 4.870179 -0 14.98073 -0 -8.237923 0.2286623 -0.6461737 -3.916656 14.15184 -13.82655 -0 25.4777 -0 -5.087055 -16.39634 11.0924 -1.420031 -2.188606 4.53481 4.687818 11.78549 -10.57158 0.2258524 19.51793 6.181964 2.900032 -27.30243 7.150667 5.526102 -18.7083 12.19298 91.65927 33.85011 -28.30308 -0 0 9.512003 -7.729889 9.491547 4.625348 5.929797 -24.78211 -3.448002 -90.83991 26.09045 19.88959 0 0 -26.94063 7.533701 9.555379 7.801291
2.889318 99.70223 41.74686 -3.490501 3.227598 3.516235 9.68784 -26.71415 4.517229 -0 16.49516 -0 -8.821098 -1.52339 -0.9993488 -3.016739 12.4321 -11.87514 -0 35.11353 -0 -7.061084 -11.22592 8.967553 -1.472454 -2.119058 4.696685 4.489719 11.90182 -10.43235 0.1469366 19.62317 6.119965 2.962455 -26.80739 6.813574 5.494687 -18.73949 12.22037 91.41101 33.98213 -27.84166 -0 0 9.599521 -8.796516 9.781695 5.222676 5.770519 -24.79007 -3.612192 -90.70748 26.16738 19.98021 0 0 -26.84811 6.903567 9.244986 8.536354
3.179389 100.8667 48.13935 -3.547633 1.706527 3.070937 9.71704 -21.8334 4.319288 -0 16.75916 -0 -9.262134 -3.731246 -1.400666 -2.515678 8.646436 -9.911087 -0 46.6257 -0 -6.885617 -6.663256 8.446411 -1.571319 -2.046212 4.966767 4.163449 11.95661 -10.10469 0.09996037 19.82812 6.032607 3.008622 -26.17963 6.497252 5.438501 -18.85048 12.20795 90.76845 34.21054 -26.7818 -0 0 10.00902 -10.11303 10.07296 5.977517 5.553267 -24.57925 -3.692411 -90.73222 26.23529 20.34645 0 0 -26.21756 6.233407 9.072403 9.236299
3.514604 102.4275 54.32711 -2.734728 0.1311509 2.23843 8.622721 -16.01796 4.087873 -0 15.57352 -0 -9.264052 -5.419965 -1.49163 -2.58783 2.825708 -8.71636 -0 57.07836 -0 -6.140089 -4.16647 9.091678 -1.712022 -1.963017 5.348182 3.717238 11.95084 -9.593078 0.08495874 20.11682 5.92359 3.040019 -25.43394 6.20492 5.356764 -19.05 12.16511 89.71804 34.50373 -25.10918 -0 0 10.75123 -11.66567 10.35919 6.89183 5.275506 -24.14146 -3.684292 -90.90813 26.26654 20.99247 0 0 -25.07537 5.530838 9.004323 9.889879
3.82506 104.018 60.17827 -1.264062 -1.494226 1.436999 6.795176 -9.470449 3.78107 -0 13.47984 -0 -8.607 -6.33713 -1.231857 -2.862302 -4.005088 -8.056695 -0 62.96896 -0 -5.782297 -3.802346 10.39124 -1.880309 -1.863825 5.82655 3.175088 11.89727 -8.931787 0.09635808 20.45519 5.805696 3.065092 -24.59461 5.936222 5.252282 -19.33153 12.1085 88.31908 34.7996 -22.91415 -0 0 11.78897 -13.42659 10.64625 7.950247 4.948169 -23.509 -3.602814 -91.2008 26.23035 21.87275 0 0 -23.54229 4.7954 8.979866 10.51212
4.05679 105.246 65.71244 0.1113928 -3.184288 0.8580792 5.330495 -3.138711 3.543574 -0 11.32495 -0 -7.535032 -7.057722 -1.015819 -2.58579 -10.58009 -7.114459 -0 62.6467 -0 -5.550543 -4.555842 12.10397 -2.057548 -1.747853 6.376823 2.571148 11.8128 -8.171415 0.1267757 20.80463 5.694422 3.092023 -23.69961 5.693557 5.13054 -19.68129 12.05434 86.68073 35.02792 -20.36068 -0 0 13.05874 -15.33966 10.93912 9.112274 4.590611 -22.73703 -3.473179 -91.57623 26.11525 22.92837 0 0 -21.77981 4.024553 8.94313 11.13396
4.242084 105.8578 71.04103 0.7853616 -4.670411 0.4108529 4.821517 2.262917 3.424282 -0 9.634502 -0 -6.468036 -8.463905 -1.08003 -1.330948 -16.21027 -5.542135 -0 56.60245 -0 -5.072959 -5.356978 13.99379 -2.227529 -1.618587 6.971262 1.940868 11.71052 -7.361641 0.1706746 21.13404 5.60166 3.123753 -22.79483 5.48427 4.997575 -20.08399 12.013 84.92185 35.13606 -17.62578 -0 0 14.49306 -17.324 11.2338 10.32151 4.223446 -21.87983 -3.316763 -92.01196 25.92608 24.10618 0 0 -19.92958 3.228076 8.863026 11.77218
4.466216 105.7929 76.31716 0.6858058 -5.480861 -0.07577636 5.010544 6.581437 3.374671 -0 8.52039 -0 -5.622364 -10.89326 -1.204124 0.6162622 -20.75263 -3.69715 -0 46.67663 -0 -4.389564 -5.647726 15.68712 -2.376538 -1.480495 7.577156 1.319607 11.60114 -6.551308 0.2237863 21.41773 5.537063 3.160737 -21.92638 5.317499 4.858921 -20.51738 11.99101 83.16784 35.09496 -14.89132 -0 0 16.01239 -19.28807 11.52384 11.51725 3.870048 -20.99095 -3.149439 -92.47747 25.66426 25.33473 0 0 -18.11578 2.43546 8.721468 12.41388
